<?xml version="1.0" standalone="no"?>
<!DOCTYPE svg PUBLIC "-//W3C//DTD SVG 20010904//EN"
 "http://www.w3.org/TR/2001/REC-SVG-20010904/DTD/svg10.dtd">
<svg version="1.0" xmlns="http://www.w3.org/2000/svg"
 width="545.000000pt" height="60.000000pt" viewBox="0 0 545.000000 60.000000"
 preserveAspectRatio="xMidYMid meet">
<metadata>
Created by potrace 1.16, written by Peter Selinger 2001-2019
</metadata>
<g transform="translate(0.000000,60.000000) scale(0.100000,-0.100000)"
fill="#000000" stroke="none">
<path d="M130 300 l0 -210 140 0 140 0 0 210 0 210 -140 0 -140 0 0 -210z
m270 0 l0 -200 -130 0 -130 0 0 200 0 200 130 0 130 0 0 -200z"/>
<path d="M233 357 c-7 -12 -2 -13 42 -7 l40 6 -38 5 c-21 3 -41 1 -44 -4z"/>
<path d="M266 295 c-3 -9 -5 -29 -5 -43 1 -20 3 -17 9 13 8 43 7 57 -4 30z"/>
<path d="M540 300 l0 -210 140 0 140 0 0 210 0 210 -140 0 -140 0 0 -210z
m270 0 l0 -200 -130 0 -130 0 0 200 0 200 130 0 130 0 0 -200z"/>
<path d="M625 364 c-12 -5 -7 -124 6 -124 5 0 9 29 9 65 0 36 -1 65 -2 64 -2
0 -7 -2 -13 -5z"/>
<path d="M725 364 c-12 -5 -7 -124 6 -124 5 0 9 29 9 65 0 36 -1 65 -2 64 -2
0 -7 -2 -13 -5z"/>
<path d="M950 300 l0 -210 140 0 140 0 0 210 0 210 -140 0 -140 0 0 -210z
m270 0 l0 -200 -130 0 -130 0 0 200 0 200 130 0 130 0 0 -200z"/>
<path d="M1050 335 c0 -3 16 -21 36 -39 21 -19 34 -39 30 -45 -12 -19 -46 -12
-56 12 -8 17 -9 18 -7 3 3 -28 33 -44 55 -30 23 15 26 38 8 56 -11 12 -12 18
-3 29 10 11 9 11 -4 1 -12 -9 -20 -8 -37 4 -12 8 -22 12 -22 9z"/>
<path d="M1360 300 l0 -210 140 0 140 0 0 210 0 210 -140 0 -140 0 0 -210z
m270 0 l0 -200 -130 0 -130 0 0 200 0 200 130 0 130 0 0 -200z"/>
<path d="M1470 341 c-13 -25 -13 -67 0 -92 14 -25 46 -25 60 0 13 25 13 33 -3
55 -11 15 -12 12 -9 -23 4 -36 2 -41 -17 -41 -13 0 -22 7 -22 18 -4 46 -4 59
3 80 9 27 2 29 -12 3z"/>
<path d="M1770 300 l0 -210 140 0 140 0 0 210 0 210 -140 0 -140 0 0 -210z
m268 -3 l2 -197 -130 0 -130 0 0 200 0 201 128 -3 127 -3 3 -198z"/>
<path d="M1918 358 c-2 -7 -1 -38 3 -68 l6 -55 1 68 c2 64 -1 82 -10 55z"/>
<path d="M2180 300 l0 -210 140 0 140 0 0 210 0 210 -140 0 -140 0 0 -210z
m268 -3 l2 -197 -130 0 -130 0 0 200 0 201 128 -3 127 -3 3 -198z"/>
<path d="M2290 355 c0 -8 9 -10 25 -7 14 2 25 6 25 7 0 1 -11 5 -25 7 -16 3
-25 1 -25 -7z"/>
<path d="M2340 285 c0 -17 -6 -37 -12 -44 -11 -10 -10 -11 4 -6 22 9 32 40 19
62 -9 15 -10 13 -11 -12z"/>
<path d="M2280 264 c0 -8 5 -12 10 -9 6 4 8 11 5 16 -9 14 -15 11 -15 -7z"/>
<path d="M2590 300 l0 -210 140 0 140 0 0 210 0 210 -140 0 -140 0 0 -210z
m268 -3 l2 -197 -130 0 -130 0 0 200 0 201 128 -3 127 -3 3 -198z"/>
<path d="M2697 353 c-13 -12 -7 -51 10 -64 15 -13 15 -12 4 9 -7 12 -9 32 -6
42 7 20 3 25 -8 13z"/>
<path d="M2745 303 c0 -53 -2 -58 -24 -61 -15 -2 -21 0 -17 7 4 6 2 11 -4 11
-20 0 -4 -25 17 -28 41 -6 69 72 41 111 -11 15 -13 8 -13 -40z"/>
<path d="M3000 300 l0 -210 140 0 140 0 -2 208 -3 207 -137 3 -138 3 0 -211z
m268 -3 l2 -197 -130 0 -130 0 0 200 0 201 128 -3 127 -3 3 -198z"/>
<path d="M3085 364 c-12 -5 -7 -124 6 -124 5 0 9 29 9 65 0 36 -1 65 -2 64 -2
0 -7 -2 -13 -5z"/>
<path d="M3182 363 c25 -6 30 -31 12 -66 l-15 -32 21 24 c31 36 20 83 -19 80
-13 -1 -13 -2 1 -6z"/>
<path d="M3168 243 c12 -2 30 -2 40 0 9 3 -1 5 -23 4 -22 0 -30 -2 -17 -4z"/>
<path d="M3410 503 c0 -4 60 -8 132 -8 l133 0 3 -197 2 -197 -137 -4 -138 -3
143 -2 142 -2 -2 208 -3 207 -137 3 c-76 1 -138 -1 -138 -5z"/>
<path d="M3817 504 c-4 -4 -7 -99 -7 -211 l0 -203 145 0 145 0 -2 208 -3 207
-136 3 c-74 1 -138 -1 -142 -4z m271 -207 l2 -197 -135 0 -135 0 0 193 c0 107
3 197 7 201 4 3 63 5 132 4 l126 -3 3 -198z"/>
<path d="M3905 364 c-12 -5 -7 -124 6 -124 5 0 9 29 9 65 0 36 -1 65 -2 64 -2
0 -7 -2 -13 -5z"/>
<path d="M4008 363 c15 -6 16 -35 0 -51 -8 -8 -8 -12 -1 -12 14 0 24 -26 17
-45 -4 -8 -15 -15 -25 -15 -10 0 -19 7 -19 15 0 8 -4 15 -10 15 -15 0 -12 -16
5 -30 32 -26 81 13 58 48 -7 12 -8 24 -1 36 10 19 -5 47 -26 45 -7 0 -6 -2 2
-6z"/>
<path d="M4227 504 c-4 -4 -7 -99 -7 -211 l0 -203 145 0 145 0 -2 208 -3 207
-136 3 c-74 1 -138 -1 -142 -4z m271 -207 l2 -197 -135 0 -135 0 0 193 c0 107
3 197 7 201 4 3 63 5 132 4 l126 -3 3 -198z"/>
<path d="M4297 352 c6 -4 13 -32 16 -62 l3 -55 2 63 c2 53 0 62 -15 62 -12 0
-14 -3 -6 -8z"/>
<path d="M4380 334 c-13 -34 -13 -57 3 -77 10 -15 12 -8 12 43 0 33 -1 60 -3
60 -1 0 -7 -12 -12 -26z"/>
<path d="M4438 309 c3 -31 -1 -56 -10 -67 -12 -15 -11 -16 5 -3 12 9 17 28 17
62 0 26 -3 50 -7 52 -5 3 -6 -17 -5 -44z"/>
<path d="M4637 504 c-4 -4 -7 -99 -7 -211 l0 -203 145 0 145 0 -2 208 -3 207
-136 3 c-74 1 -138 -1 -142 -4z m271 -207 l2 -197 -135 0 -135 0 0 193 c0 107
3 197 7 201 4 3 63 5 132 4 l126 -3 3 -198z"/>
<path d="M4772 363 c25 -6 30 -31 12 -66 l-15 -32 21 24 c31 36 20 83 -19 80
-13 -1 -13 -2 1 -6z"/>
<path d="M4758 243 c12 -2 30 -2 40 0 9 3 -1 5 -23 4 -22 0 -30 -2 -17 -4z"/>
<path d="M5047 504 c-4 -4 -7 -99 -7 -211 l0 -203 145 0 145 0 -2 208 -3 207
-136 3 c-74 1 -138 -1 -142 -4z m271 -207 l2 -197 -135 0 -135 0 0 193 c0 107
3 197 7 201 4 3 63 5 132 4 l126 -3 3 -198z"/>
<path d="M5188 363 c15 -6 16 -35 0 -51 -8 -8 -8 -12 -1 -12 14 0 24 -26 17
-45 -4 -8 -15 -15 -25 -15 -10 0 -19 7 -19 15 0 8 -4 15 -10 15 -15 0 -12 -16
5 -30 32 -26 81 13 58 48 -7 12 -8 24 -1 36 10 19 -5 47 -26 45 -7 0 -6 -2 2
-6z"/>
<path d="M3527 352 c6 -4 13 -32 16 -62 l3 -55 2 63 c2 53 0 62 -15 62 -12 0
-14 -3 -6 -8z"/>
</g>
</svg>
