<?xml version="1.0" standalone="no"?>
<!DOCTYPE svg PUBLIC "-//W3C//DTD SVG 20010904//EN"
 "http://www.w3.org/TR/2001/REC-SVG-20010904/DTD/svg10.dtd">
<svg version="1.0" xmlns="http://www.w3.org/2000/svg"
 width="352.000000pt" height="248.000000pt" viewBox="0 0 352.000000 248.000000"
 preserveAspectRatio="xMidYMid meet">
<metadata>
Created by potrace 1.16, written by Peter Selinger 2001-2019
</metadata>
<g transform="translate(0.000000,248.000000) scale(0.100000,-0.100000)"
fill="#000000" stroke="none">
<path d="M1148 2363 c3 -27 0 -40 -14 -50 -10 -7 -13 -13 -8 -13 18 0 57 47
45 55 -6 3 -11 15 -11 26 0 10 -4 19 -8 19 -4 0 -6 -17 -4 -37z"/>
<path d="M1187 2381 c-4 -17 -3 -21 5 -13 5 5 8 16 6 23 -3 8 -7 3 -11 -10z"/>
<path d="M1162 2235 c-7 -15 -8 -25 -2 -25 6 0 10 -175 10 -485 l0 -485 -535
0 -535 0 0 -535 0 -535 -50 0 c-27 0 -50 -4 -50 -10 0 -7 202 -10 585 -10
l585 0 0 -75 c0 -43 4 -75 10 -75 6 0 10 32 10 75 l0 75 1046 0 c699 0 1043
-3 1039 -10 -4 -6 5 -5 19 2 33 14 33 22 0 36 -14 7 -23 8 -19 2 4 -6 -23 -10
-74 -10 l-81 0 -2 963 -3 962 -963 3 -963 2 3 70 c3 77 -11 107 -30 65z m1948
-1105 l0 -960 -705 0 -705 0 0 470 0 470 -255 0 -255 0 0 490 0 490 960 0 960
0 0 -960z m-1940 40 l0 -60 -210 0 -210 0 0 -470 0 -470 -320 0 -320 0 0 530
0 530 530 0 530 0 0 -60z m0 -535 l0 -465 -205 0 -205 0 0 465 0 465 205 0
205 0 0 -465z m520 0 l0 -465 -250 0 -250 0 0 465 0 465 250 0 250 0 0 -465z"/>
<path d="M2086 1138 c-4 -24 -13 -56 -21 -71 -13 -26 -13 -27 11 -27 15 0 23
4 19 11 -9 14 3 61 15 54 4 -3 11 -19 15 -35 4 -20 13 -30 25 -30 18 0 18 1 2
29 -16 28 -15 31 2 49 28 32 17 56 -25 60 -36 3 -37 2 -43 -40z m58 23 c9 -14
-4 -41 -20 -41 -8 0 -14 8 -14 18 0 29 22 43 34 23z"/>
<path d="M542 768 c-19 -19 -14 -48 13 -80 27 -32 29 -37 16 -56 -13 -21 -46
-10 -49 16 -4 29 -22 18 -22 -14 0 -21 4 -24 39 -24 29 0 44 6 55 21 17 25 12
44 -22 81 -13 14 -21 31 -18 37 12 19 46 12 56 -11 6 -16 9 -18 9 -6 1 9 3 22
6 30 7 17 -67 22 -83 6z"/>
<path d="M1240 699 c0 -19 1 -19 16 -5 15 16 34 21 34 10 0 -25 -35 -121 -48
-131 -13 -11 -10 -13 24 -13 22 0 34 4 27 8 -17 11 22 142 42 142 8 0 15 -7
15 -16 0 -8 5 -12 10 -9 6 3 10 13 10 21 0 11 -15 14 -65 14 -59 0 -65 -2 -65
-21z"/>
<path d="M3380 176 c13 -13 13 -22 -4 -39 -12 -12 -10 -14 14 -14 26 0 28 2
18 20 -8 16 -7 23 5 32 14 10 12 12 -14 12 -20 0 -26 -4 -19 -11z"/>
</g>
</svg>
